<svg xmlns="http://www.w3.org/2000/svg" viewBox="0 0 512 256"><title>_ko_Orijinal With Text_svg</title><g id="8d2f7a7d-9857-419a-83f4-3ef1056a9faf" data-name="Orjinal With Text"><g id="70438fa4-7d2e-4ac7-b32f-61697bbe5b7a" data-name="Tests"><text transform="translate(252.354 180.57108) scale(1.21362 1)" style="font-size:56.7045783996582px;fill:#544841;font-family:CooperBlack, Cooper Black"><tspan style="letter-spacing:0.008791045386490472em">K<tspan x="47.40145" y="0" style="letter-spacing:0.000007095274726788115em">a</tspan><tspan x="79.54718" y="0" style="font-size:58px;letter-spacing:-0.000006936802793314999em">bile</tspan></tspan><tspan style="font-size:58px"><tspan x="0" y="48">Onlin</tspan><tspan x="164.824" y="48" style="font-size:56.7045783996582px;letter-spacing:0.000007095274726788115em">e</tspan></tspan></text></g><g id="6b9ea060-5332-42ec-994a-c30144fc6c8f" data-name="Logo"><g id="87ae0160-e243-45d0-8670-870eca22c01c" data-name="Gövde"><path id="4baf591a-eb6c-4b4f-818e-4722b4ba1f21" data-name="Üst" d="M96.06833,42.95329a1.53135,1.53135,0,0,0,1.56358-1.56358s7.8179,4.69074,4.69074-4.69074c0,0-2.34537-7.03611-3.90895-9.38149,0,0,3.12716,1.56359,6.25432,8.5997,0,0,8.5997,15.6358,8.5997,1.56358,0,0,1.56358-10.94507.78179-15.63581,0,0,2.34537,3.12716,2.34537,9.38149,0,0,.78179,13.29043,5.47253-.78179,0,0,4.69074-9.38149,4.69074-10.16328,0,0-1.56358,17.98118-.78179,18.763,0,0,4.69074-2.34537,8.5997-9.38148,0,0-1.56358,7.03611-2.34538,8.59969,0,0-6.25432,10.16327,7.03612,3.12716,0,0,12.50864-4.69074,14.854-3.909,0,0-14.854,8.59969-18.763,10.16327,0,0-7.81791,3.12716-2.34537,7.81791,0,0,85.21514,68.79754,90.68767,83.65156,0,0,13.29043,14.854,14.07222,14.854,0,0-1.56358,3.909-29.708-23.45371,0,0-32.83519-31.27161-46.90741-27.36266,0,0-5.47254,9.38149,1.56358,31.27162,0,0,4.69074,14.854,2.34537,21.89012a127.75794,127.75794,0,0,1-25.01729-42.21667s-7.81791-18.763-14.07223-21.10834c-8.34623-3.12984,1.56358,53.94353.78179,53.16174l-8.59969-56.2889s-3.89324-28.36448-4.69074-17.19939c-.78179,10.94507-6.25432,40.6531-6.25432,40.6531L108.577,78.91564,95.28654,118.00516,81.99611,153.18572s3.12716-27.36266,6.25432-37.52593S89.814,88.29713,78.86894,98.4604c0,0-19.54475,10.94507-42.99846,37.52594l44.56205-52.38L95.28654,66.407l9.38148-9.38148,2.34538-1.56358,1.56358-2.34538Z" style="fill:#8b6239;opacity:0.75"/><path id="8049958b-7a53-4568-aa11-d9e7b3643410" data-name="Sol" d="M105.93843,135.0091c8.30653,1.95447,7.645,9.83311,15.24491,21.30378,7.76964,11.72686,12.97284,9.30819,12.97284,9.30819l2.56525-.61077,1.09939-.24431,1.588-1.51472-.02443-2.44309-.80622-10.774c.65963,2.41866,8.502,11.75129,8.502,11.75129.87951,3.7135,29.16692,1.95447,29.16692,1.95447,1.46586,14.17-.827,47.49376-.827,47.49376-4.593-36.25552-8.2088-43.19391-8.2088-43.19391l-46.90742,4.39757c-18.37207-1.36813-23.97491,6.58414-23.97491,6.58414-9.90267,6.77959-13.25785,38.95514-13.25785,38.95514-2.14993-3.12716-3.403-21.03738-5.17936-34.301C74.96,161.78542,74.37365,186.705,74.37365,186.705c-.97724,7.427-2.63854-.39089-2.63854-.39089-.97724-1.27041-2.93172-10.6519-2.93172-10.6519-4.78846-13.77905-4.88618,8.89287-4.88618,8.89287l-3.68093,53.5852c-10.55417-7.427-12.248-15.7661-12.248-15.7661-.78179-7.68761-10.81476-58.24337-10.81476-58.24337-2.21508-8.2088-9.12089-17.72059-9.12089-17.72059C25.186,142.371,32.613,144.19513,32.613,144.19513c6.51493,3.39439,29.57775-19.40119,29.57775-19.40119L59.40214,137.159c-.83412,20.71744,9.01036,21.62952,9.01036,21.62952a102.01941,102.01941,0,0,0,27.91642,6.124S104.53391,134.67862,105.93843,135.0091Z" style="fill:#8b6239;opacity:0.75"/><path id="c56be47a-4a4a-4872-ae95-c7dd6652e588" data-name="Sağ" d="M180.632,160.22183s24.3658,3.38776,29.05654-2.99686a9.14967,9.14967,0,0,0,0-7.16641s-2.34537-7.03611,2.47567-.2606,6.90581,4.821,5.08164,1.17269a80.40438,80.40438,0,0,0-14.854-14.33282s1.43328,7.427,2.86657,9.25118a8.98945,8.98945,0,0,1-4.95134,11.336Z" style="fill:#8b6239;opacity:0.75"/></g><g id="31566a9e-b617-497b-92ea-5d9817014ed4" data-name="İskelet"><path id="8f628a08-5c5d-4fac-b0ff-6972e02cf1bc" data-name="Kapi" d="M157.82976,244.65519s-4.69074-52.38-17.19938-57.85249c0,0-3.12716-3.90895-13.29044,3.12717,0,0-10.16327,10.16327-13.29043,47.6892,0,0-2.34537,10.16328-3.12716,10.94507,0,0-3.12716-27.36266,6.25432-50.03458,0,0,6.25432-15.63581,13.29043-17.98118,0,0,7.81791-3.909,17.98118.78179,0,0,17.98118,8.5997,18.763,60.19786,0,0,0,3.909-2.34537,3.909h-7.03612Z" style="fill:#544841"/><path id="697df2d3-b0b5-42d9-be07-3eff0d2ad741" data-name="Duvar Sağ" d="M192.22854,237.61907s3.12716-1.56358,13.29043-13.29043c0,0,1.56358-.78179,5.47253-12.50865l6.25433-56.2889s3.12716-3.12716,5.47253.78179c0,0,0,30.48982-5.47253,49.25279,0,0-4.69074,25.01729-21.10834,32.0534C196.13749,237.61907,193.79212,239.18265,192.22854,237.61907Z" style="fill:#544841"/><path id="54ef872d-2372-44fb-9b2a-8bf9d3f31284" data-name="Duvar Sol" d="M65.57851,243.09161s-21.89013-4.69075-22.67192-15.63581c0,0-3.909-10.94506-6.25432-36.74414V153.96751H33.52511s-1.56358,22.67192-1.56358,28.14445c0,0,3.12716,32.8352,4.69074,35.18057,0,0,1.56358,18.763,10.16327,22.67191,0,0,10.16328,4.69075,12.50865,4.69075h6.25432Z" style="fill:#544841"/><path id="abb0ae76-a6b0-4c88-9573-17211b3498dc" data-name="alt Çatı Sol" d="M28.05258,150.05856a29.63967,29.63967,0,0,0,9.38148,4.69074s8.59969,3.909,15.6358-13.29043c0,0,1.56359.78179-.78179,7.03611,0,0-4.69074,10.94506,6.25433,15.63581a23.288,23.288,0,0,0,10.94506,1.56358s.78179,0-3.12716-2.34537c0,0-8.59969-1.56358-10.94506-4.69075,0,0-1.56358-.78179.78179-15.6358,0,0,2.34537-12.50865-1.56358-7.8179,0,0-10.94507,14.854-13.29044,16.41759C39.39154,152.92312,28.05258,150.05856,28.05258,150.05856Z" style="fill:#544841"/><path id="94d81c69-0297-4c63-ac95-0d03c27d2b2a" data-name="duvar orta sol 2" d="M42.90659,164.91258s-1.56358,40.65309,6.25432,60.19785C49.16091,225.11043,45.252,175.85764,42.90659,164.91258Z" style="fill:#544841"/><path id="ca173281-519f-4164-8b01-e57dca477c92" data-name="dovar orta sol" d="M58.5424,164.91258S56.197,192.27524,60.106,196.966l.78179-31.27161Z" style="fill:#544841"/><path id="15b32b66-5dea-4bd7-a982-1123de3b02ec" data-name="Bina tavan orta" d="M100.75907,160.22183s6.25433-12.50864,9.38149-11.72685c0,0,1.56358-3.12716,10.16327,17.19939,0,0,0-20.32655-10.94506-26.58087C109.35877,139.1135,101.54086,138.33171,100.75907,160.22183Z" style="fill:#544841"/><path id="6b18fc40-cf0d-4ad4-ba27-c678e68517fe" data-name="bina tavan sol" d="M129.68531,164.13079s-1.56358,2.34537,2.34537,3.909c0,0,55.50712-1.56358,64.10681-7.81791l-22.67192,2.34538-28.14445,1.56358Z" style="fill:#544841"/><path id="b75dd014-82b5-4019-8957-99c8ceb99754" data-name="Çatı iskelet sağ" d="M132.03068,53.89835s82.86978,75.05187,86.77873,81.3062c0,0,3.12716,2.34537.78179-2.34538,0,0-1.56358-7.03611-24.2355-27.36266C195.3557,105.49651,136.72143,51.553,132.03068,53.89835Z" style="fill:#544841"/><path id="5884ec44-3135-4882-8450-a2ac34fda617" data-name="çatı iskelet sol" d="M14.76214,152.40393s65.67039-78.179,78.179-85.99693l12.50864-12.50865-2.34537-1.56358S70.26925,79.69743,65.57851,84.38818c0,0-34.39877,36.74414-49.25279,60.19785C16.32572,144.586,10.85319,154.7493,14.76214,152.40393Z" style="fill:#544841"/><path id="485bfe73-4d34-4ed9-bbcd-57f3162b904a" data-name="çatı tavan" d="M75.74178,24.97211s9.38149,17.98118,31.27162,29.708c0,0,10.94506,2.34538,17.98117,0,0,0,4.69074-.78179,7.03611-4.69074,0,0-10.16327,3.12716-15.6358,3.12716,0,0-3.909.78179-12.50865-3.12716l-7.8179-5.47253L85.12327,34.3536Z" style="fill:#544841"/><path id="8efa0fc7-7aad-49e0-ace5-4133cfa8a072" data-name="çatı sol" d="M110.422,55.72253s-37.80738,63.84621-40.93454,67.75516,1.56358-5.47253,1.56358-5.47253S94.50475,72.66132,107.0134,57.02552l1.56358-1.56358Z" style="fill:#544841"/><path id="d082c371-6f7f-49ae-baec-4ca49b81bb31" data-name="çatı orta sağ" d="M115.61309,101.58756s6.25432,43.78026,7.03611,46.12563S124.99457,138.33171,115.61309,101.58756Z" style="fill:#544841"/><path id="bd6dc9fd-dc49-4c8e-945d-83ee2caa4719" data-name="satı orta sol" d="M110.14056,66.407s-10.16328,58.63427-21.10834,87.56051C89.03222,153.96751,101.54086,81.261,110.14056,66.407Z" style="fill:#544841"/><path id="e9c5cf80-601f-4d5d-bff2-173db6a47baa" data-name="Çatı sağ" d="M160.17514,143.02245s-25.01729-63.325-36.74415-82.86977c0,0-1.56358-1.56358,0,1.56358S154.7026,138.33171,160.17514,143.02245Z" style="fill:#544841"/><path id="bcac3cf3-8889-43b0-93b9-da48239a2bee" data-name="Çatı üzeri sol" d="M95.28654,9.33631s10.94506,27.36266,14.854,28.92624c0,0,3.12716,2.34537,2.34537-25.79908a5.459,5.459,0,0,0-1.56358,3.12716V28.09927s-.78179,11.72686-4.69075,1.56359C103.09388,21.50478,98.4137,12.46347,95.28654,9.33631Z" style="fill:#544841"/><path id="316c6f7b-e15a-49b2-a27e-fb459af4bf31" data-name="Çatı üzeri sağ" d="M118.74025,28.09927s7.03611-17.98117,10.94506-20.32654C129.68531,7.77273,122.6492,26.53569,118.74025,28.09927Z" style="fill:#544841"/></g></g></g></svg>