<svg id="c02e7f5f-aa1a-4433-9814-20108c5244eb" data-name="Orinal With Text Vertical" xmlns="http://www.w3.org/2000/svg" viewBox="0 0 1034 256"><title>_ko_Orjinal with Text Vertical_svg</title><text transform="translate(265.99979 162.2215) scale(1.21362 1)" style="font-size:56.7045783996582px;fill:#544841;font-family:CooperBlack, Cooper Black;letter-spacing:0.008791045386490472em">K<tspan x="47.40145" y="0" style="letter-spacing:0.000007095274726788115em">abile Online</tspan></text><g id="0d7a8d59-6600-405e-8e57-f253351cf96b" data-name="Logo"><g id="a352da00-a992-426a-a670-d2bebcb59494" data-name="Gölge"><path id="3093e9df-09d1-4598-8831-940e732d9ebf" data-name="Üst" d="M101.06833,44.95329a1.53135,1.53135,0,0,0,1.56358-1.56358s7.8179,4.69074,4.69074-4.69074c0,0-2.34537-7.03611-3.90895-9.38149,0,0,3.12716,1.56359,6.25432,8.5997,0,0,8.5997,15.6358,8.5997,1.56358,0,0,1.56358-10.94507.78179-15.63581,0,0,2.34537,3.12716,2.34537,9.38149,0,0,.78179,13.29043,5.47253-.78179,0,0,4.69074-9.38149,4.69074-10.16328,0,0-1.56358,17.98118-.78179,18.763,0,0,4.69074-2.34537,8.5997-9.38148,0,0-1.56358,7.03611-2.34538,8.59969,0,0-6.25432,10.16327,7.03612,3.12716,0,0,12.50864-4.69074,14.854-3.909,0,0-14.854,8.59969-18.763,10.16327,0,0-7.81791,3.12716-2.34537,7.81791,0,0,85.21514,68.79754,90.68767,83.65156,0,0,13.29043,14.854,14.07222,14.854,0,0-1.56358,3.909-29.708-23.45371,0,0-32.83519-31.27161-46.90741-27.36266,0,0-5.47254,9.38149,1.56358,31.27162,0,0,4.69074,14.854,2.34537,21.89012a127.75794,127.75794,0,0,1-25.01729-42.21667s-7.81791-18.763-14.07223-21.10834c-8.34623-3.12984,1.56358,53.94353.78179,53.16174l-8.59969-56.2889s-3.89324-28.36448-4.69074-17.19939c-.78179,10.94507-6.25432,40.6531-6.25432,40.6531L113.577,80.91564l-13.29044,39.08952L86.99611,155.18572s3.12716-27.36266,6.25432-37.52593S94.814,90.29713,83.86894,100.4604c0,0-19.54475,10.94507-42.99846,37.52594l44.56205-52.38,14.854-17.19939,9.38148-9.38148,2.34538-1.56358,1.56358-2.34538Z" style="fill:#8b6239;opacity:0.75"/><path id="4d597f0f-02c7-4af0-9144-b4dca418a120" data-name="Sol" d="M110.93843,137.0091c8.30653,1.95447,7.645,9.83311,15.24491,21.30378,7.76964,11.72686,12.97284,9.30819,12.97284,9.30819l2.56525-.61077,1.09939-.24431,1.588-1.51472-.02443-2.44309-.80622-10.774c.65963,2.41866,8.502,11.75129,8.502,11.75129.87951,3.7135,29.16692,1.95447,29.16692,1.95447,1.46586,14.17-.827,47.49376-.827,47.49376-4.593-36.25552-8.2088-43.19391-8.2088-43.19391l-46.90742,4.39757c-18.37207-1.36813-23.97491,6.58414-23.97491,6.58414-9.90267,6.77959-13.25785,38.95514-13.25785,38.95514-2.14993-3.12716-3.403-21.03738-5.17936-34.301C79.96,163.78542,79.37365,188.705,79.37365,188.705c-.97724,7.427-2.63854-.39089-2.63854-.39089-.97724-1.27041-2.93172-10.6519-2.93172-10.6519-4.78846-13.77905-4.88618,8.89287-4.88618,8.89287l-3.68093,53.5852c-10.55417-7.427-12.248-15.7661-12.248-15.7661-.78179-7.68761-10.81476-58.24337-10.81476-58.24337-2.21508-8.2088-9.12089-17.72059-9.12089-17.72059C30.186,144.371,37.613,146.19513,37.613,146.19513c6.51493,3.39439,29.57775-19.40119,29.57775-19.40119L64.40214,139.159c-.83412,20.71744,9.01036,21.62952,9.01036,21.62952a102.01941,102.01941,0,0,0,27.91642,6.124S109.53391,136.67862,110.93843,137.0091Z" style="fill:#8b6239;opacity:0.75"/><path id="8d812354-773d-4c6b-a265-706f38de3a00" data-name="Sağ" d="M185.632,162.22183s24.3658,3.38776,29.05654-2.99686a9.14967,9.14967,0,0,0,0-7.16641s-2.34537-7.03611,2.47567-.2606,6.90581,4.821,5.08164,1.17269a80.40438,80.40438,0,0,0-14.854-14.33282s1.43328,7.427,2.86657,9.25118a8.98945,8.98945,0,0,1-4.95134,11.336Z" style="fill:#8b6239;opacity:0.75"/></g><g id="d0720cea-dfdd-4ffe-93e0-a8f619d6b745" data-name="İskelet"><path id="7b507342-eb74-4910-b02a-32c5902edf55" data-name="Kapi" d="M162.82976,246.65519s-4.69074-52.38-17.19938-57.85249c0,0-3.12716-3.90895-13.29044,3.12717,0,0-10.16327,10.16327-13.29043,47.6892,0,0-2.34537,10.16328-3.12716,10.94507,0,0-3.12716-27.36266,6.25432-50.03458,0,0,6.25432-15.63581,13.29043-17.98118,0,0,7.81791-3.909,17.98118.78179,0,0,17.98118,8.5997,18.763,60.19786,0,0,0,3.909-2.34537,3.909h-7.03612Z" style="fill:#544841"/><path id="385d0d97-66b1-499a-9f9d-c230f64856b3" data-name="Duvar Sağ" d="M197.22854,239.61907s3.12716-1.56358,13.29043-13.29043c0,0,1.56358-.78179,5.47253-12.50865l6.25433-56.2889s3.12716-3.12716,5.47253.78179c0,0,0,30.48982-5.47253,49.25279,0,0-4.69074,25.01729-21.10834,32.0534C201.13749,239.61907,198.79212,241.18265,197.22854,239.61907Z" style="fill:#544841"/><path id="7b55f838-317e-4808-87de-48e7966d5cf8" data-name="Duvar Sol" d="M70.57851,245.09161s-21.89013-4.69075-22.67192-15.63581c0,0-3.909-10.94506-6.25432-36.74414V155.96751H38.52511s-1.56358,22.67192-1.56358,28.14445c0,0,3.12716,32.8352,4.69074,35.18057,0,0,1.56358,18.763,10.16327,22.67191,0,0,10.16328,4.69075,12.50865,4.69075h6.25432Z" style="fill:#544841"/><path id="e67e832c-e3ca-4c57-8a35-64c6e77428e5" data-name="alt Çatı Sol" d="M33.05258,152.05856a29.63967,29.63967,0,0,0,9.38148,4.69074s8.59969,3.909,15.6358-13.29043c0,0,1.56359.78179-.78179,7.03611,0,0-4.69074,10.94506,6.25433,15.63581a23.288,23.288,0,0,0,10.94506,1.56358s.78179,0-3.12716-2.34537c0,0-8.59969-1.56358-10.94506-4.69075,0,0-1.56358-.78179.78179-15.6358,0,0,2.34537-12.50865-1.56358-7.8179,0,0-10.94507,14.854-13.29044,16.41759C44.39154,154.92312,33.05258,152.05856,33.05258,152.05856Z" style="fill:#544841"/><path id="3710f191-8cfe-4f19-8873-501f700c81c4" data-name="duvar orta sol 2" d="M47.90659,166.91258s-1.56358,40.65309,6.25432,60.19785C54.16091,227.11043,50.252,177.85764,47.90659,166.91258Z" style="fill:#544841"/><path id="ef797a4e-580f-4f3c-a98d-6cf7ad23370d" data-name="dovar orta sol" d="M63.5424,166.91258S61.197,194.27524,65.106,198.966l.78179-31.27161Z" style="fill:#544841"/><path id="e1663c09-7267-4427-a566-b595b773f5c1" data-name="Bina tavan orta" d="M105.75907,162.22183s6.25433-12.50864,9.38149-11.72685c0,0,1.56358-3.12716,10.16327,17.19939,0,0,0-20.32655-10.94506-26.58087C114.35877,141.1135,106.54086,140.33171,105.75907,162.22183Z" style="fill:#544841"/><path id="69c60941-3efd-4722-81da-a98fde07fb02" data-name="bina tavan sol" d="M134.68531,166.13079s-1.56358,2.34537,2.34537,3.909c0,0,55.50712-1.56358,64.10681-7.81791l-22.67192,2.34538-28.14445,1.56358Z" style="fill:#544841"/><path id="18b83526-d237-46ec-a26e-f827b09af4e8" data-name="Çatı iskelet sağ" d="M137.03068,55.89835s82.86978,75.05187,86.77873,81.3062c0,0,3.12716,2.34537.78179-2.34538,0,0-1.56358-7.03611-24.2355-27.36266C200.3557,107.49651,141.72143,53.553,137.03068,55.89835Z" style="fill:#544841"/><path id="c9402c5a-7320-4338-a742-3ea388fa2f73" data-name="çatı iskelet sol" d="M19.76214,154.40393s65.67039-78.179,78.179-85.99693l12.50864-12.50865-2.34537-1.56358S75.26925,81.69743,70.57851,86.38818c0,0-34.39877,36.74414-49.25279,60.19785C21.32572,146.586,15.85319,156.7493,19.76214,154.40393Z" style="fill:#544841"/><path id="ec233a70-61c8-431b-8524-ac4f2379884f" data-name="çatı tavan" d="M80.74178,26.97211s9.38149,17.98118,31.27162,29.708c0,0,10.94506,2.34538,17.98117,0,0,0,4.69074-.78179,7.03611-4.69074,0,0-10.16327,3.12716-15.6358,3.12716,0,0-3.909.78179-12.50865-3.12716l-7.8179-5.47253L90.12327,36.3536Z" style="fill:#544841"/><path id="fd5941bc-27f3-4e79-b260-24d99b0df4d9" data-name="çatı sol" d="M115.422,57.72253s-37.80738,63.84621-40.93454,67.75516,1.56358-5.47253,1.56358-5.47253S99.50475,74.66132,112.0134,59.02552l1.56358-1.56358Z" style="fill:#544841"/><path id="63b586ea-a085-4117-8f71-17e4ca5c284c" data-name="çatı orta sağ" d="M120.61309,103.58756s6.25432,43.78026,7.03611,46.12563S129.99457,140.33171,120.61309,103.58756Z" style="fill:#544841"/><path id="2dc3e53f-d7e8-4f2f-908b-1a96204e3da0" data-name="satı orta sol" d="M115.14056,68.407s-10.16328,58.63427-21.10834,87.56051C94.03222,155.96751,106.54086,83.261,115.14056,68.407Z" style="fill:#544841"/><path id="982abc9b-0270-453e-b19a-c6639ef5a6d2" data-name="Çatı sağ" d="M165.17514,145.02245s-25.01729-63.325-36.74415-82.86977c0,0-1.56358-1.56358,0,1.56358S159.7026,140.33171,165.17514,145.02245Z" style="fill:#544841"/><path id="d71b8368-616e-49da-a535-bd62a755434b" data-name="Çatı üzeri sol" d="M100.28654,11.33631s10.94506,27.36266,14.854,28.92624c0,0,3.12716,2.34537,2.34537-25.79908a5.459,5.459,0,0,0-1.56358,3.12716V30.09927s-.78179,11.72686-4.69075,1.56359C108.09388,23.50478,103.4137,14.46347,100.28654,11.33631Z" style="fill:#544841"/><path id="527294c3-7388-4432-b854-d0365cb33f42" data-name="Çatı üzeri sağ" d="M123.74025,30.09927s7.03611-17.98117,10.94506-20.32654C134.68531,9.77273,127.6492,28.53569,123.74025,30.09927Z" style="fill:#544841"/></g></g><text transform="translate(264.99979 198.2215) scale(1.21362 1)" style="font-size:39px;fill:#544841;font-family:Mistral, Mistral">El emeği, göz nuru online strateji oyunu</text></svg>