<svg xmlns="http://www.w3.org/2000/svg" viewBox="0 0 512 512"><title>_ko_Orijinal Big_svg</title><g id="33d054aa-3df0-4ec6-9c55-756cbd50c6a0" data-name="Orijinal Big"><g id="56db7aec-9c92-4cb4-a555-95b975308720" data-name="Gölge"><path id="bd8d108d-5094-4f54-aaec-a43a744d96be" data-name="Üst" d="M196.76653,80.82851A3.13647,3.13647,0,0,0,199.969,77.626s16.01239,9.60744,9.60744-9.60743c0,0-4.80372-14.41116-8.0062-19.21488,0,0,6.405,3.20248,12.80992,17.61364,0,0,17.61363,32.02479,17.61363,3.20247,0,0,3.20248-22.41735,1.60124-32.02479,0,0,4.80372,6.405,4.80372,19.21488,0,0,1.60124,27.22107,11.20868-1.60124,0,0,9.60744-19.21488,9.60744-20.81612,0,0-3.20248,36.82851-1.60124,38.42975,0,0,9.60743-4.80371,17.61363-19.21487,0,0-3.20248,14.41116-4.80372,17.61363,0,0-12.80991,20.81612,14.41116,6.405,0,0,25.61984-9.60743,30.42355-8.0062,0,0-30.42355,17.61364-38.42975,20.81612,0,0-16.01239,6.405-4.80372,16.0124,0,0,174.53513,140.90909,185.74381,171.33264,0,0,27.22107,30.42356,28.82231,30.42356,0,0-3.20248,8.00619-60.84711-48.03719,0,0-67.25206-64.04959-96.07438-56.04339,0,0-11.20868,19.21487,3.20248,64.04958,0,0,9.60744,30.42356,4.80372,44.83471,0,0-33.626-35.22727-51.23967-86.46694,0,0-16.0124-38.42975-28.82231-43.23347-17.09451-6.41044,3.20248,110.48554,1.60124,108.8843L241.60124,176.90289s-7.974-58.09527-9.60744-35.22727c-1.60124,22.41736-12.80992,83.26446-12.80992,83.26446l3.20248-70.45454-27.22107,80.062-27.22108,72.05579s6.405-56.04339,12.80992-76.85951,3.20248-56.04339-19.21487-35.22727c0,0-40.031,22.41735-88.06819,76.8595l91.27067-107.283,30.42355-35.22728,19.21488-19.21487,4.80371-3.20248,3.20248-4.80372Z" style="fill:#8b6239;opacity:0.75"/><path id="0648ed6f-a76f-4400-a56c-bf4d21babefe" data-name="Sol" d="M216.98218,269.37448c17.01317,4.0031,15.65826,20.13989,31.22417,43.63378,15.91354,24.0186,26.57057,19.06476,26.57057,19.06476l5.25407-1.251,2.25175-.50039,3.25251-3.1024-.05-5.00388-1.65127-22.06708c1.351,4.95383,17.41348,24.06863,17.41348,24.06863,1.80139,7.60589,59.73882,4.0031,59.73882,4.0031,3.00233,29.02247-1.69388,97.27531-1.69388,97.27531-9.40729-74.25749-16.813-88.46849-16.813-88.46849l-96.07438,9.007c-37.62913-2.80217-49.10469,13.48544-49.10469,13.48544C177.01791,373.405,170.14592,439.306,170.14592,439.306c-4.40341-6.405-6.96987-43.08814-10.60821-70.25439-6.00465-44.83471-7.20558,6.20481-7.20558,6.20481-2.00155,15.21177-5.40419-.80062-5.40419-.80062-2.00155-2.602-6.00464-21.81689-6.00464-21.81689-9.8076-28.22185-10.00775,18.2141-10.00775,18.2141l-7.53916,109.75162c-21.61674-15.21178-25.0861-32.29165-25.0861-32.29165-1.60124-15.74554-22.15047-119.29236-22.15047-119.29236-4.53687-16.813-18.68114-36.29477-18.68114-36.29477-5.87122-8.27306,9.34055-4.53684,9.34055-4.53684,13.34368,6.95228,60.58025-39.73694,60.58025-39.73694l-5.71155,25.32578c-1.70842,42.43285,18.45475,44.301,18.45475,44.301a208.95332,208.95332,0,0,0,57.17759,12.54306S214.10549,268.69761,216.98218,269.37448Z" style="fill:#8b6239;opacity:0.75"/><path id="ffa7cdb6-ad75-4360-93a7-03bf47d8abce" data-name="Sağ" d="M369.96729,321.01446s49.9053,6.93871,59.51274-6.13808c0,0,3.46935-7.47245,0-14.678,0,0-4.80372-14.41116,5.07059-.53375s14.14428,9.87431,10.40806,2.40186c0,0-10.94181-14.678-30.42356-29.35606,0,0,2.93561,15.21178,5.87122,18.948,0,0,5.87121,15.47865-10.14119,23.218Z" style="fill:#8b6239;opacity:0.75"/></g><g id="0c297da8-b334-4603-9052-8b270033e49a" data-name="İskelet"><path id="ade9746e-8b15-4eaf-a500-0f7f687087dc" data-name="Kapi" d="M323.26446,493.94835S313.657,386.66529,288.03719,375.45661c0,0-6.405-8.0062-27.22107,6.405,0,0-20.81612,20.81612-27.22108,97.67562,0,0-4.80372,20.81612-6.405,22.41736,0,0-6.405-56.04339,12.80992-102.47934,0,0,12.80992-32.0248,27.22107-36.82852,0,0,16.0124-8.00619,36.82852,1.60124,0,0,36.82851,17.61364,38.42975,123.29546,0,0,0,8.0062-4.80372,8.0062H323.26446Z" style="fill:#544841"/><path id="bb2b000c-3f50-4269-a641-ae65b37f35e6" data-name="Duvar Sağ" d="M393.719,479.53719s6.405-3.20248,27.22107-27.22107c0,0,3.20248-1.60124,11.20868-25.61984L444.95868,311.407s6.405-6.40495,11.20868,1.60124c0,0,0,62.44835-11.20868,100.8781,0,0-9.60744,51.23967-43.23347,65.65083C401.72521,479.53719,396.92149,482.73967,393.719,479.53719Z" style="fill:#544841"/><path id="b5615b2d-14f7-4fec-8dee-f69114217ecc" data-name="Duvar Sol" d="M134.31818,490.74587s-44.83471-9.60744-46.436-32.0248c0,0-8.0062-22.41735-12.80992-75.25826V308.20455H68.66736s-3.20248,46.43595-3.20248,57.64462c0,0,6.40495,67.25207,9.60743,72.05579,0,0,3.20248,38.42975,20.81612,46.43595,0,0,20.81612,9.60744,25.61983,9.60744h12.80992Z" style="fill:#544841"/><path id="5b0009f2-a2b7-4752-b7fa-1f577ac0179e" data-name="alt Çatı Sol" d="M57.45868,300.19835a60.70715,60.70715,0,0,0,19.21487,9.60744s17.61364,8.00619,32.0248-27.22108c0,0,3.20248,1.60124-1.60124,14.41116,0,0-9.60744,22.41735,12.80991,32.02479,0,0,11.20868,4.80372,22.41736,3.20248,0,0,1.60124,0-6.405-4.80372,0,0-17.61363-3.20248-22.41735-9.60744,0,0-3.20248-1.60124,1.60124-32.02479,0,0,4.80371-25.61983-3.20248-16.0124,0,0-22.41736,30.42356-27.22108,33.626C80.68282,306.06545,57.45868,300.19835,57.45868,300.19835Z" style="fill:#544841"/><path id="e3d9b37a-0285-497a-9f3e-0682173ac3ba" data-name="duvar orta sol 2" d="M87.88223,330.6219s-3.20248,83.26446,12.80992,123.29546C100.69215,453.91736,92.686,353.03926,87.88223,330.6219Z" style="fill:#544841"/><path id="d25d935e-1428-4497-bfee-68ea942e357a" data-name="dovar orta sol" d="M119.907,330.6219s-4.80371,56.04339,3.20248,65.65083l1.60124-64.04959Z" style="fill:#544841"/><path id="cc2bfc10-7fc1-4c0d-b04b-2afdea5d04a9" data-name="Bina tavan orta" d="M206.374,321.01446s12.80991-25.61983,19.21487-24.01859c0,0,3.20248-6.405,20.81612,35.22727,0,0,0-41.63223-22.41736-54.44215C223.9876,277.781,207.97521,276.17975,206.374,321.01446Z" style="fill:#544841"/><path id="ad480e94-bfd5-486d-92be-71c32c76364d" data-name="bina tavan sol" d="M265.61983,329.02066s-3.20247,4.80372,4.80372,8.0062c0,0,113.688-3.20248,131.30166-16.0124l-46.43595,4.80372-57.64463,3.20248Z" style="fill:#544841"/><path id="8df0c5a7-9049-46f7-ae3b-994d91af65ed" data-name="Çatı iskelet sağ" d="M270.42355,103.24587S440.155,256.96488,448.16116,269.77479c0,0,6.405,4.80372,1.60124-4.80372,0,0-3.20248-14.41115-49.63843-56.04338C400.124,208.92769,280.031,98.44215,270.42355,103.24587Z" style="fill:#544841"/><path id="c65ec558-b4c9-49f5-8fb7-e11300678c36" data-name="çatı iskelet sol" d="M30.2376,305.00207s134.50414-160.124,160.124-176.13637l25.61983-25.61983-4.80371-3.20248s-67.25207,56.04339-76.85951,65.65082c0,0-70.45454,75.25827-100.8781,123.29546C33.44008,288.98967,22.2314,309.80579,30.2376,305.00207Z" style="fill:#544841"/><path id="61d37816-976e-46c5-84ba-c4c15be1b38e" data-name="çatı tavan" d="M155.1343,44s19.21487,36.82851,64.04958,60.84711c0,0,22.41736,4.80372,36.82852,0,0,0,9.60743-1.60124,14.41115-9.60744,0,0-20.81611,6.405-32.02479,6.405,0,0-8.0062,1.60124-25.61983-6.405L196.76653,84.031,174.34917,63.21488Z" style="fill:#544841"/><path id="76bd0f3a-4fdd-4d38-98d6-92a679b2a045" data-name="çatı sol" d="M226.16529,106.98209S148.72934,237.75,142.32438,245.7562s3.20248-11.20868,3.20248-11.20868,48.03719-92.8719,73.657-124.89669l3.20248-3.20248Z" style="fill:#544841"/><path id="d87caa6c-30b5-4e91-bf18-b0a0ec864f42" data-name="çatı orta sağ" d="M236.79752,200.92149s12.80992,89.66942,14.41116,94.47314S256.0124,276.17975,236.79752,200.92149Z" style="fill:#544841"/><path id="d35ddb85-3a08-408a-8d62-7da9f0ab73b5" data-name="satı orta sol" d="M225.58884,128.8657s-20.81611,120.093-43.23347,179.33885C182.35537,308.20455,207.97521,159.28926,225.58884,128.8657Z" style="fill:#544841"/><path id="d229601f-f4f2-4470-a85e-106694dac443" data-name="Çatı sağ" d="M328.06818,285.78719s-51.23967-129.70041-75.25826-169.7314c0,0-3.20248-3.20248,0,3.20247S316.8595,276.17975,328.06818,285.78719Z" style="fill:#544841"/><path id="5e79366b-a6f2-4c72-ab76-af7f5f700d97" data-name="Çatı üzeri sol" d="M195.16529,11.97521s22.41735,56.04339,30.42355,59.24586c0,0,6.405,4.80372,4.80372-52.8409,0,0-3.20248,3.20247-3.20248,6.40495V50.405s-1.60124,24.01859-9.60744,3.20248C211.15606,36.89831,201.57025,18.38017,195.16529,11.97521Z" style="fill:#544841"/><path id="14eb70e2-7ef3-4938-b4d4-1285e8667b16" data-name="Çatı üzeri sağ" d="M243.20248,50.405s14.41116-36.82851,22.41735-41.63223C265.61983,8.77273,251.20868,47.20248,243.20248,50.405Z" style="fill:#544841"/></g></g></svg>