<?xml version="1.0" standalone="no"?><!DOCTYPE svg PUBLIC "-//W3C//DTD SVG 20010904//EN" "http://www.w3.org/TR/2001/REC-SVG-20010904/DTD/svg10.dtd"><svg version="1.0" xmlns="http://www.w3.org/2000/svg" width="16.000000pt" height="16.000000pt" viewBox="0 0 512 512" preserveAspectRatio="xMidYMid meet"><title>Kabile Online</title><metadata>Kabile Online</metadata>
<g id="20c85ec5-5ca6-49f5-8641-dc15f624a7a6" data-name="Orijinal Favicon"><ellipse cx="256.70455" cy="257.43182" rx="238.502" ry="239.09063" style="fill:#fff;stroke:#544841;stroke-miterlimit:10;stroke-width:10px"/><g id="d6c08555-fa7a-497f-bc53-1d07d25948ea" data-name="katman 15"><g id="4e481707-4cff-421c-bc64-ce2c0fc458e3" data-name="Gölge"><path id="0cd08412-e8ad-4680-8490-b340a35eef58" data-name="Üst" d="M209.95112,94.39993a2.639,2.639,0,0,0,2.69454-2.69455s13.47271,8.08363,8.08363-8.08362c0,0-4.04182-12.12544-6.73636-16.16726,0,0,5.38909,2.69455,10.77817,14.82,0,0,14.82,26.94542,14.82,2.69454,0,0,2.69455-18.8618,1.34727-26.94542,0,0,4.04182,5.38908,4.04182,16.16725,0,0,1.34727,22.90361,9.4309-1.34727,0,0,8.08362-16.16725,8.08362-17.51453,0,0-2.69454,30.98724-1.34727,32.33451,0,0,8.08363-4.04181,14.82-16.16725,0,0-2.69454,12.12544-4.04181,14.82,0,0-10.77817,17.51452,12.12544,5.38908,0,0,21.55634-8.08362,25.59815-6.73635,0,0-25.59815,14.82-32.33451,17.51452,0,0-13.47271,5.38909-4.04181,13.47271,0,0,146.85255,118.55986,156.28345,144.158,0,0,22.90361,25.59815,24.25088,25.59815,0,0-2.69454,6.73636-51.1963-40.41813,0,0-56.58539-53.89084-80.83627-47.15449,0,0-9.4309,16.16725,2.69454,53.89084,0,0,8.08363,25.59816,4.04182,37.7236,0,0-28.2927-29.64-43.11268-72.75264,0,0-13.47271-32.33451-24.25088-36.37632-14.38319-5.3937,2.69454,92.9617,1.34727,91.61443l-14.82-97.00352s-6.70927-48.88093-8.08363-29.64c-1.34727,18.86179-10.77817,70.0581-10.77817,70.0581l2.69455-59.27993L208.60385,223.738l-22.90361,60.6272s5.38908-47.15449,10.77817-64.669,2.69454-47.15449-16.16725-29.64c0,0-33.68178,18.8618-74.09992,64.669L183.0057,164.458l25.59815-29.64,16.16725-16.16725,4.04181-2.69455,2.69455-4.04181Z" style="fill:#8b6239;opacity:0.75"/><path id="b6dd79da-847d-4aa2-9e2e-59d8af84bd5a" data-name="Sol" d="M226.96042,253.0411c14.31475,3.36818,13.17474,16.94555,26.27178,36.71314,13.38954,20.20906,22.35628,16.04094,22.35628,16.04094l4.42074-1.05255,1.8946-.421,2.73664-2.61033-.0421-4.21023L283.209,278.934c1.13676,4.16812,14.65157,20.25117,14.65157,20.25117,1.51568,6.39954,50.2638,3.36818,50.2638,3.36818C350.65049,326.9726,346.69914,384.4,346.69914,384.4c-7.91522-62.4797-14.14635-74.43673-14.14635-74.43673l-80.83627,7.5784c-31.66087-2.35772-41.31632,11.34655-41.31632,11.34655-17.06542,11.68337-22.84746,67.132-22.84746,67.132-3.705-5.38908-5.8644-36.254-8.92567-59.11152-5.05227-37.72359-6.06272,5.22068-6.06272,5.22068-1.68409,12.79907-4.547-.67364-4.547-.67364-1.68409-2.18931-5.05227-18.35656-5.05227-18.35656-8.252-23.74566-8.42044,15.3252-8.42044,15.3252l-6.3434,92.3442c-18.18816-12.79908-21.10725-27.17-21.10725-27.17C125.74668,390.35046,108.4567,303.227,108.4567,303.227c-3.81728-14.14635-15.71817-30.53816-15.71817-30.53816-4.94-6.96088,7.85908-3.81726,7.85908-3.81726,11.22727,5.8496,50.97177-33.43436,50.97177-33.43436l-4.80566,21.30892c-1.43746,35.70269,15.52768,37.27449,15.52768,37.27449a175.81193,175.81193,0,0,0,48.1088,10.55364S224.54,252.47159,226.96042,253.0411Z" style="fill:#8b6239;opacity:0.75"/><path id="3c6a8992-06bd-45aa-b358-c933481ce2f1" data-name="Sağ" d="M355.68094,296.49059s41.98995,5.83818,50.07358-5.16454c0,0,2.91909-6.28726,0-12.35,0,0-4.04181-12.12544,4.26636-.44909s11.90089,8.30817,8.75726,2.0209a138.56184,138.56184,0,0,0-25.59815-24.7s2.47,12.79908,4.94,15.94271c0,0,4.94,13.02362-8.53271,19.53543Z" style="fill:#8b6239;opacity:0.75"/></g><g id="6cf1cc38-f5aa-4bca-b8f3-18d54bf0169b" data-name="İskelet"><path id="421f68cd-c443-4628-900e-b2659656ea7a" data-name="Kapi" d="M316.38554,441.99587s-8.08363-90.26716-29.64-99.69806c0,0-5.38908-6.73636-22.90361,5.38908,0,0-17.51452,17.51453-22.90361,82.18354,0,0-4.04181,17.51452-5.38908,18.86179,0,0-5.38908-47.15448,10.77817-86.22535,0,0,10.77817-26.94542,22.90361-30.98723,0,0,13.47271-6.73636,30.98723,1.34727,0,0,30.98724,14.82,32.33451,103.73987,0,0,0,6.73636-4.04181,6.73636H316.38554Z" style="fill:#544841"/><path id="86286c4e-45f0-4720-bb92-29ad49902096" data-name="Duvar Sağ" d="M375.66546,429.87043s5.38909-2.69454,22.90361-22.90361c0,0,2.69454-1.34727,9.4309-21.55634L418.77814,288.407s5.38908-5.38908,9.4309,1.34728c0,0,0,52.54357-9.4309,84.87807,0,0-8.08363,43.11268-36.37632,55.23812C382.40182,429.87043,378.36,432.565,375.66546,429.87043Z" style="fill:#544841"/><path id="1f0dc23f-9b93-44d6-9c0a-33d3a8487f44" data-name="Duvar Sol" d="M157.40755,439.30133s-37.72359-8.08363-39.07087-26.94542c0,0-6.73635-18.8618-10.77816-63.32175V285.71242h-5.38909s-2.69454,39.07086-2.69454,48.50176c0,0,5.38908,56.58539,8.08363,60.6272,0,0,2.69454,32.33451,17.51452,39.07086,0,0,17.51452,8.08363,21.55634,8.08363h10.77817Z" style="fill:#544841"/><path id="b51f9955-a9e6-49f2-889b-2f59bc45ca5a" data-name="alt Çatı Sol" d="M92.73853,278.97607a51.07858,51.07858,0,0,0,16.16726,8.08362s14.82,6.73636,26.94542-22.90361c0,0,2.69454,1.34728-1.34727,12.12544,0,0-8.08363,18.8618,10.77817,26.94543,0,0,9.43089,4.04181,18.86179,2.69454,0,0,1.34727,0-5.38908-4.04181,0,0-14.82-2.69455-18.8618-8.08363,0,0-2.69454-1.34727,1.34727-26.94542,0,0,4.04182-21.55634-2.69454-13.47271,0,0-18.86179,25.59815-22.90361,28.29269C112.27915,283.9126,92.73853,278.97607,92.73853,278.97607Z" style="fill:#544841"/><path id="8c6a91fb-11d8-4caa-b52f-e756af4dc78d" data-name="duvar orta sol 2" d="M118.33668,304.57422s-2.69454,70.05809,10.77817,103.73987C129.11485,408.31409,122.3785,323.436,118.33668,304.57422Z" style="fill:#544841"/><path id="45c2f888-169b-4f81-8623-dbfd02cd8290" data-name="dovar orta sol" d="M145.28211,304.57422s-4.04182,47.15449,2.69454,55.23811l1.34727-53.89084Z" style="fill:#544841"/><path id="e11899cb-6e54-4591-b98c-40d70bcc2114" data-name="Bina tavan orta" d="M218.03475,296.49059s10.77816-21.55634,16.16725-20.20907c0,0,2.69454-5.38908,17.51452,29.64,0,0,0-35.029-18.86179-45.80722C232.85473,260.11427,219.382,258.767,218.03475,296.49059Z" style="fill:#544841"/><path id="a1ad8d97-d90f-4f43-b159-853b1c2c6c46" data-name="bina tavan sol" d="M267.88378,303.227s-2.69455,4.04181,4.04181,6.73635c0,0,95.65625-2.69454,110.47623-13.47271L343.331,300.5324,294.8292,303.227Z" style="fill:#544841"/><path id="266fb218-d57d-424d-b43d-7036e68ae53c" data-name="Çatı iskelet sağ" d="M271.92559,113.26172s142.81074,129.338,149.54709,140.1162c0,0,5.38909,4.04181,1.34727-4.04182,0,0-2.69454-12.12544-41.7654-47.15449C381.05455,202.18161,280.00922,109.21991,271.92559,113.26172Z" style="fill:#544841"/><path id="80ea7460-ca12-4fc0-8f95-9b1549140c76" data-name="çatı iskelet sol" d="M69.83493,283.01788S183.0057,148.29077,204.562,134.81806l21.55634-21.55634-4.04181-2.69454s-56.58539,47.15449-64.669,55.23811c0,0-59.27993,63.32175-84.87808,103.73988C72.52947,269.54517,63.09857,287.05969,69.83493,283.01788Z" style="fill:#544841"/><path id="d9d563b5-8f67-4788-a615-9bfd074fc7a2" data-name="çatı tavan" d="M174.92207,63.41269s16.16725,30.98724,53.89084,51.1963c0,0,18.8618,4.04182,30.98724,0,0,0,8.08363-1.34727,12.12544-8.08362,0,0-17.51452,5.38908-26.94542,5.38908,0,0-6.73636,1.34727-21.55634-5.38908l-13.47271-9.4309-18.8618-17.51453Z" style="fill:#544841"/><path id="560d4bf9-3212-4330-907e-d1b87b8195a6" data-name="çatı sol" d="M234.687,116.40535s-65.154,110.02714-70.54312,116.7635,2.69454-9.4309,2.69454-9.4309,40.41814-78.14172,61.97447-105.08714l2.69455-2.69455Z" style="fill:#544841"/><path id="60d5a676-e5c1-4e7b-b9cd-bd848a0be314" data-name="çatı orta sağ" d="M243.6329,195.44526s10.77817,75.44718,12.12544,79.489S259.80015,258.767,243.6329,195.44526Z" style="fill:#544841"/><path id="e546fb36-fc4a-448a-8942-3ab67ea23fbe" data-name="satı orta sol" d="M234.202,134.81806s-17.51453,101.04533-36.37632,150.89436C197.82568,285.71242,219.382,160.41621,234.202,134.81806Z" style="fill:#544841"/><path id="617b9cbb-ef25-440f-934a-5255ec46b0c8" data-name="Çatı sağ" d="M320.42735,266.85063s-43.11268-109.129-63.32174-142.81074c0,0-2.69454-2.69454,0,2.69454S310.99645,258.767,320.42735,266.85063Z" style="fill:#544841"/><path id="c33d2190-9e51-4d85-84da-64a5d304d633" data-name="Çatı üzeri sol" d="M208.60385,36.46727s18.86179,47.15449,25.59815,49.849c0,0,5.38908,4.04181,4.04181-44.45995,0,0-2.69454,2.69455-2.69454,5.38909V68.80178s-1.34727,20.20906-8.08363,2.69454C222.05836,57.43738,213.99293,41.85635,208.60385,36.46727Z" style="fill:#544841"/><path id="35d0348a-4c6b-4eef-a205-d7f9c9f7df01" data-name="Çatı üzeri sağ" d="M249.022,68.80178s12.12544-30.98724,18.8618-35.029C267.88378,33.77273,255.75834,66.10723,249.022,68.80178Z" style="fill:#544841"/></g></g></g></svg>
